#!OML:ASF E:\acrobat2\Project_11_07_03\Capture day 1\Session 1\Acrobat.ASF
:FULLY-SPECIFIED
:DEGREES
315
root 10.0483 21.5781 -18.6672 2.84437 0.403052 -0.791626
lowerback -10.6685 0.842862 1.16798
upperback -3.94729 1.05081 -1.90878
thorax 1.92592 0.507882 -2.50936
lowerneck -0.51002 -0.857766 -0.775707
upperneck -0.469793 -1.13084 4.29406
head -0.0285716 -0.564981 1.44942
rclavicle -8.74653e-015 5.56597e-015
rhumerus 16.4382 -34.5413 -22.8544
rradius 18.0728
rwrist 17.2065
rhand 0.153283 -25.4842
rfingers 7.12502
rthumb 25.7372 -53.7638
lclavicle -8.74653e-015 5.56597e-015
lhumerus 24.8408 10.9539 19.3644
lradius 21.1625
lwrist 3.27536
lhand -10.0656 -12.9045
lfingers 7.12502
lthumb 15.9205 16.4611
rfemur 7.9439 8.56245 20.1909
rtibia -2.35463
rfoot -17.5131 -12.5588
rtoes 18.0667
lfemur 5.64062 -3.56294 -15.3085
ltibia 0.69919
lfoot -9.33355 -1.6474
ltoes 4.78778
316
root 10.047 21.5851 -18.6505 2.81772 0.300525 -0.872892
lowerback -10.5637 0.853991 1.23815
upperback -4.05471 1.05736 -1.89421
thorax 1.75828 0.508265 -2.53475
lowerneck -0.381088 -0.85518 -0.650722
upperneck -0.609024 -1.12258 4.20313
head -0.0942794 -0.564211 1.40008
rclavicle 9.44227e-015 9.54166e-015
rhumerus 17.5927 -34.3097 -21.9177
rradius 18.2729
rwrist 17.2683
rhand 1.06992 -25.516
rfingers 7.12502
rthumb 26.6148 -53.6654
lclavicle 9.44227e-015 9.54166e-015
lhumerus 25.845 11.1546 17.866
lradius 21.4042
lwrist 3.47425
lhand -9.89199 -12.8462
lfingers 7.12502
lthumb 16.0877 16.506
rfemur 7.98019 8.54406 20.2927
rtibia -2.32588
rfoot -17.3731 -12.465
rtoes 18.2502
lfemur 5.71986 -3.56878 -15.2277
ltibia 0.72081
lfoot -9.33639 -1.53956
ltoes 5.18075
317
root 10.0453 21.5919 -18.6336 2.78816 0.210563 -0.945738
lowerback -10.4632 0.864914 1.28866
upperback -4.14944 1.0661 -1.88482
thorax 1.60604 0.509972 -2.5541
lowerneck -0.249168 -0.874177 -0.465554
upperneck -0.805333 -1.14124 4.06561
head -0.177728 -0.577693 1.32615
rclavicle 3.8763e-015 2.14687e-014
rhumerus 18.8 -34.3267 -21.1127
rradius 18.4166
rwrist 17.4566
rhand 1.91853 -25.55
rfingers 7.12502
rthumb 27.4267 -53.5735
lclavicle 3.8763e-015 2.14687e-014
lhumerus 26.9051 11.5474 16.5005
lradius 21.5909
lwrist 3.4664
lhand -9.67102 -12.8599
lfingers 7.12502
lthumb 16.3004 16.475
rfemur 8.02387 8.53398 20.3893
rtibia -2.27737
rfoot -17.2819 -12.3473
rtoes 18.576
lfemur 5.8001 -3.55445 -15.1476
ltibia 0.740051
lfoot -9.3195 -1.46327
ltoes 5.56491
318
root 10.0438 21.5984 -18.616 2.75438 0.133884 -1.00581
lowerback -10.3745 0.874517 1.32341
upperback -4.22974 1.07502 -1.88188
thorax 1.47519 0.512113 -2.57109
lowerneck -0.146337 -0.915719 -0.265555
upperneck -0.999081 -1.19011 3.92718
head -0.254806 -0.605964 1.24975
rclavicle 3.77691e-015 -1.03368e-014
rhumerus 20.0314 -34.502 -20.4015
rradius 18.5295
rwrist 17.6169
rhand 2.65884 -25.5995
rfingers 7.12502
rthumb 28.1345 -53.5088
lclavicle 3.77691e-015 -1.03368e-014
lhumerus 28.0527 12.2156 15.3607
lradius 21.7009
lwrist 3.1781
lhand -9.38954 -12.964
lfingers 7.12502
lthumb 16.5714 16.3484
rfemur 8.07554 8.49054 20.4642
rtibia -2.23019
rfoot -17.1816 -12.2248
rtoes 18.6967
lfemur 5.88975 -3.52821 -15.0807
ltibia 0.748657
lfoot -9.29007 -1.40689
ltoes 5.78243
319
root 10.0428 21.6047 -18.5976 2.71793 0.0717025 -1.05897
lowerback -10.2959 0.882944 1.353
upperback -4.30748 1.08306 -1.88306
thorax 1.3524 0.513879 -2.58948
lowerneck -0.094518 -0.969529 -0.113312
upperneck -1.07825 -1.25905 3.85947
head -0.287308 -0.642325 1.20329
rclavicle -1.13307e-014 -8.74653e-015
rhumerus 21.2507 -34.7503 -19.7441
rradius 18.6378
rwrist 17.6353
rhand 3.28272 -25.6586
rfingers 7.12502
rthumb 28.7307 -53.4683
lclavicle -1.13307e-014 -8.74653e-015
lhumerus 29.2754 13.09 14.4434
lradius 21.7555
lwrist 2.6971
lhand -9.07162 -13.1435
lfingers 7.12502
lthumb 16.8775 16.1431
rfemur 8.13713 8.40918 20.5214
rtibia -2.17213
rfoot -17.0971 -12.0904
rtoes 18.6176
lfemur 5.98777 -3.50429 -15.0257
ltibia 0.747317
lfoot -9.26418 -1.35469
ltoes 5.75121
320
root 10.0425 21.6107 -18.5784 2.68605 0.0261655 -1.1037
lowerback -10.2257 0.888548 1.3791
upperback -4.39211 1.08776 -1.88845
thorax 1.22695 0.513839 -2.61066
lowerneck -0.0845444 -1.03178 -0.0201411
upperneck -1.03772 -1.34313 3.86667
head -0.275279 -0.684291 1.18962
rclavicle -9.64106e-015 -9.54166e-015
rhumerus 22.4732 -35.0797 -19.1689
rradius 18.7464
rwrist 17.5282
rhand 3.77365 -25.7452
rfingers 7.12502
rthumb 29.1996 -53.4745
lclavicle -9.64106e-015 -9.54166e-015
lhumerus 30.5271 14.0016 13.6515
lradius 21.8152
lwrist 2.27952
lhand -8.80597 -13.2911
lfingers 7.12502
lthumb 17.1332 15.9734
rfemur 8.20337 8.28925 20.5562
rtibia -2.12618
rfoot -17.0212 -11.9458
rtoes 18.4129
lfemur 6.08459 -3.50731 -14.9911
ltibia 0.743462
lfoot -9.26507 -1.29201
ltoes 5.338
321
root 10.0426 21.6163 -18.5586 2.66166 -0.00630741 -1.13993
lowerback -10.1643 0.89184 1.39927
upperback -4.48586 1.08997 -1.898
thorax 1.0967 0.512395 -2.63311
lowerneck -0.0891334 -1.09238 0.01932
upperneck -0.924274 -1.42732 3.94662
head -0.237806 -0.725154 1.2074
rclavicle 2.18663e-015 2.38542e-015
rhumerus 23.7492 -35.5532 -18.7529
rradius 18.8452
rwrist 17.384
rhand 4.08527 -25.8639
rfingers 7.12502
rthumb 29.4971 -53.5411
lclavicle 2.18663e-015 2.38542e-015
lhumerus 31.789 14.8953 12.942
lradius 21.8994
lwrist 2.00424
lhand -8.62003 -13.3947
lfingers 7.12502
lthumb 17.3122 15.8542
rfemur 8.27184 8.15106 20.5738
rtibia -2.08444
rfoot -16.9788 -11.787
rtoes 18.2037
lfemur 6.17486 -3.54103 -14.9762
ltibia 0.743441
lfoot -9.30139 -1.21635
ltoes 4.51641
